<svg width="198" height="210" viewBox="0 0 198 210" fill="none"
    xmlns="http://www.w3.org/2000/svg">
    <g clip-path="url(#clip0_54_9)">
        <path d="M99 210C148.706 210 189 169.706 189 120C189 70.2944 148.706 30 99 30C49.2944 30 9 70.2944 9 120C9 169.706 49.2944 210 99 210Z" fill="#E6E6E6"/>
        <mask id="mask0_54_9" style="mask-type:luminance" maskUnits="userSpaceOnUse" x="9" y="30" width="180" height="180">
            <path d="M99 210C148.706 210 189 169.706 189 120C189 70.2944 148.706 30 99 30C49.2944 30 9 70.2944 9 120C9 169.706 49.2944 210 99 210Z" fill="white"/>
        </mask>
        <g mask="url(#mask0_54_9)">
            <!-- circular background -->
            <path d="M189 30H9V210H189V30Z" fill="#3F2305"/>
        </g>
        <mask id="mask1_54_9" style="mask-type:luminance" maskUnits="userSpaceOnUse" x="0" y="0" width="198" height="210">
            <path d="M9 120C9 169.706 49.2944 210 99 210C148.706 210 189 169.706 189 120H198V0H0V120H9Z" fill="white"/>
        </mask>
        <g mask="url(#mask1_54_9)">
            <path d="M117 135.458V149.25H120C149.823 149.25 174 173.427 174 203.25V210H24V203.25C24 173.427 48.1766 149.25 78 149.25H81V135.458C68.072 129.317 58.7792 116.765 57.2289 101.911C52.8602 101.293 49.5 97.5391 49.5 93V82.5C49.5 78.0405 52.7434 74.3386 57 73.6245V69C57 45.8041 75.804 27 99 27C122.196 27 141 45.8041 141 69V73.6245C145.257 74.3386 148.5 78.0405 148.5 82.5V93C148.5 97.5391 145.14 101.293 140.771 101.911C139.221 116.765 129.928 129.317 117 135.458Z" fill="#D0C6AC"/>
            <mask id="mask2_54_9" style="mask-type:luminance" maskUnits="userSpaceOnUse" x="24" y="27" width="150" height="183">
                <path d="M117 135.458V149.25H120C149.823 149.25 174 173.427 174 203.25V210H24V203.25C24 173.427 48.1766 149.25 78 149.25H81V135.458C68.072 129.317 58.7792 116.765 57.2289 101.911C52.8602 101.293 49.5 97.5391 49.5 93V82.5C49.5 78.0405 52.7434 74.3386 57 73.6245V69C57 45.8041 75.804 27 99 27C122.196 27 141 45.8041 141 69V73.6245C145.257 74.3386 148.5 78.0405 148.5 82.5V93C148.5 97.5391 145.14 101.293 140.771 101.911C139.221 116.765 129.928 129.317 117 135.458Z" fill="white"/>
            </mask>
            <g mask="url(#mask2_54_9)">
                <path d="M222 27H24V237H222V27Z" fill="#D08B5B"/>
            </g>
            <mask id="mask3_54_9" style="mask-type:luminance" maskUnits="userSpaceOnUse" x="24" y="27" width="150" height="183">
                <path d="M117 135.458V149.25H120C149.823 149.25 174 173.427 174 203.25V210H24V203.25C24 173.427 48.1766 149.25 78 149.25H81V135.458C68.072 129.317 58.7792 116.765 57.2289 101.911C52.8602 101.293 49.5 97.5391 49.5 93V82.5C49.5 78.0405 52.7434 74.3386 57 73.6245V69C57 45.8041 75.804 27 99 27C122.196 27 141 45.8041 141 69V73.6245C145.257 74.3386 148.5 78.0405 148.5 82.5V93C148.5 97.5391 145.14 101.293 140.771 101.911C139.221 116.765 129.928 129.317 117 135.458Z" fill="white"/>
            </mask>
            <g mask="url(#mask3_54_9)">
                <path fill-rule="evenodd" clip-rule="evenodd" d="M141 86.25V103.5C141 126.696 122.196 145.5 99 145.5C75.804 145.5 57 126.696 57 103.5V86.25V97.5C57 120.696 75.804 139.5 99 139.5C122.196 139.5 141 120.696 141 97.5V86.25Z" fill="black" fill-opacity="0.1"/>
            </g>
            <path fill-rule="evenodd" clip-rule="evenodd" d="M70.5 149.766V183H127.5V149.766C134.522 150.742 141.112 153.068 147 156.474L147 210H140.25H57.75H51V156.474C56.8875 153.068 63.4778 150.742 70.5 149.766Z" fill="#B7C1DB"/>
            <mask id="mask4_54_9" style="mask-type:luminance" maskUnits="userSpaceOnUse" x="51" y="149" width="96" height="61">
                <path fill-rule="evenodd" clip-rule="evenodd" d="M70.5 149.766V183H127.5V149.766C134.522 150.742 141.112 153.068 147 156.474L147 210H140.25H57.75H51V156.474C56.8875 153.068 63.4778 150.742 70.5 149.766Z" fill="white"/>
            </mask>
            <g mask="url(#mask4_54_9)">
                <!-- dress -->
                <path d="M198 127.5H0V210H198V127.5Z" fill="#FFDEB5"/>
            </g>
            <path d="M60.75 193.5C62.8211 193.5 64.5 191.821 64.5 189.75C64.5 187.679 62.8211 186 60.75 186C58.6789 186 57 187.679 57 189.75C57 191.821 58.6789 193.5 60.75 193.5Z" fill="#F4F4F4"/>
            <path d="M137.25 193.5C139.321 193.5 141 191.821 141 189.75C141 187.679 139.321 186 137.25 186C135.179 186 133.5 187.679 133.5 189.75C133.5 191.821 135.179 193.5 137.25 193.5Z" fill="#F4F4F4"/>
            <path fill-rule="evenodd" clip-rule="evenodd" d="M84.8384 111.846C85.6318 118.965 91.6695 124.5 99 124.5C106.353 124.5 112.406 118.931 113.169 111.78C113.23 111.205 112.588 110.25 111.782 110.25C100.612 110.25 92.0534 110.25 86.3151 110.25C85.505 110.25 84.759 111.134 84.8384 111.846Z" fill="black" fill-opacity="0.7"/>
            <mask id="mask5_54_9" style="mask-type:luminance" maskUnits="userSpaceOnUse" x="84" y="110" width="30" height="15">
                <path fill-rule="evenodd" clip-rule="evenodd" d="M84.8384 111.846C85.6318 118.965 91.6695 124.5 99 124.5C106.353 124.5 112.406 118.931 113.169 111.78C113.23 111.205 112.588 110.25 111.782 110.25C100.612 110.25 92.0534 110.25 86.3151 110.25C85.505 110.25 84.759 111.134 84.8384 111.846Z" fill="white"/>
            </mask>
            <g mask="url(#mask5_54_9)">
                <path d="M107.25 102H91.5C89.4289 102 87.75 103.679 87.75 105.75V110.25C87.75 112.321 89.4289 114 91.5 114H107.25C109.321 114 111 112.321 111 110.25V105.75C111 103.679 109.321 102 107.25 102Z" fill="white"/>
            </g>
            <mask id="mask6_54_9" style="mask-type:luminance" maskUnits="userSpaceOnUse" x="84" y="110" width="30" height="15">
                <path fill-rule="evenodd" clip-rule="evenodd" d="M84.8384 111.846C85.6318 118.965 91.6695 124.5 99 124.5C106.353 124.5 112.406 118.931 113.169 111.78C113.23 111.205 112.588 110.25 111.782 110.25C100.612 110.25 92.0534 110.25 86.3151 110.25C85.505 110.25 84.759 111.134 84.8384 111.846Z" fill="white"/>
            </mask>
            <g mask="url(#mask6_54_9)">
                <path d="M95.25 135C99.8063 135 103.5 131.306 103.5 126.75C103.5 122.194 99.8063 118.5 95.25 118.5C90.6937 118.5 87 122.194 87 126.75C87 131.306 90.6937 135 95.25 135Z" fill="#FF4F6D"/>
                <path d="M102.75 135C107.306 135 111 131.306 111 126.75C111 122.194 107.306 118.5 102.75 118.5C98.1937 118.5 94.5 122.194 94.5 126.75C94.5 131.306 98.1937 135 102.75 135Z" fill="#FF4F6D"/>
            </g>
            <path fill-rule="evenodd" clip-rule="evenodd" d="M90 97.5001C90 100.814 94.0294 103.5 99 103.5C103.971 103.5 108 100.814 108 97.5001" fill="black" fill-opacity="0.16"/>
            <path d="M79.5 88.5C81.9853 88.5 84 86.4853 84 84C84 81.5147 81.9853 79.5 79.5 79.5C77.0147 79.5 75 81.5147 75 84C75 86.4853 77.0147 88.5 79.5 88.5Z" fill="black" fill-opacity="0.6"/>
            <path d="M118.5 88.5C120.985 88.5 123 86.4853 123 84C123 81.5147 120.985 79.5 118.5 79.5C116.015 79.5 114 81.5147 114 84C114 86.4853 116.015 88.5 118.5 88.5Z" fill="black" fill-opacity="0.6"/>
            <path d="M68.7227 74.3689C71.6589 70.2374 79.7084 67.9206 86.6423 69.6234C87.4468 69.821 88.2592 69.3289 88.4567 68.5244C88.6543 67.7199 88.1623 66.9075 87.3577 66.71C79.3053 64.7325 69.9841 67.4153 66.2773 72.6311C65.7974 73.3063 65.9558 74.2428 66.6311 74.7227C67.3063 75.2026 68.2428 75.0442 68.7227 74.3689Z" fill="black" fill-opacity="0.6"/>
            <path d="M129.278 74.3689C126.341 70.2374 118.292 67.9206 111.358 69.6234C110.553 69.821 109.741 69.3289 109.544 68.5244C109.346 67.7199 109.838 66.9075 110.642 66.71C118.695 64.7325 128.016 67.4153 131.723 72.6311C132.203 73.3063 132.044 74.2428 131.369 74.7227C130.694 75.2026 129.757 75.0442 129.278 74.3689Z" fill="black" fill-opacity="0.6"/>
            <mask id="mask7_54_9" style="mask-type:luminance" maskUnits="userSpaceOnUse" x="0" y="0" width="198" height="210">
                <path d="M198 0H0V210H198V0Z" fill="white"/>
            </mask>
            <g mask="url(#mask7_54_9)">
                <path fill-rule="evenodd" clip-rule="evenodd" d="M59.2652 55.3578C57.797 59.6352 57 64.2245 57 69V73.6244C52.7434 74.3386 49.5 78.0405 49.5 82.5V92.25C49.5 96.764 52.8232 100.502 57.1564 101.15C58.4639 116.336 67.8519 129.212 81 135.458V143.666C77.4715 145.324 73.5314 146.25 69.375 146.25C62.7702 146.25 56.7118 143.911 51.9828 140.016C50.5514 140.171 49.0975 140.25 47.625 140.25C31.8042 140.25 18.1219 131.094 11.5883 117.791C5.95071 113.943 2.25 107.466 2.25 100.125C2.25 98.5391 2.42272 96.9934 2.75038 95.506C0.972295 90.7587 0 85.6179 0 80.25C0 70.6828 3.08859 61.8369 8.32307 54.6551C8.27468 54.0681 8.25 53.4745 8.25 52.875C8.25 44.4019 13.1801 37.0802 20.3282 33.6222C26.6526 20.0262 40.1682 10.4519 55.9876 9.78697C59.8364 6.05048 65.0871 3.75 70.875 3.75C72.6202 3.75 74.3166 3.95916 75.9404 4.35377C83.0819 1.5435 90.8607 0 99 0C106.76 0 114.191 1.40283 121.056 3.9687C122.058 3.82458 123.083 3.75 124.125 3.75C129.913 3.75 135.164 6.05048 139.012 9.78697C154.832 10.4519 168.347 20.0262 174.672 33.6222C181.82 37.0802 186.75 44.4019 186.75 52.875C186.75 53.4745 186.725 54.0681 186.677 54.6551C191.911 61.8369 195 70.6828 195 80.25C195 85.6179 194.028 90.7587 192.25 95.506C192.577 96.9934 192.75 98.5391 192.75 100.125C192.75 107.466 189.049 113.943 183.412 117.791C176.878 131.094 163.196 140.25 147.375 140.25C145.903 140.25 144.449 140.171 143.017 140.016C138.288 143.911 132.23 146.25 125.625 146.25C122.611 146.25 119.712 145.763 117 144.864V135.458C130.148 129.212 139.536 116.336 140.844 101.15C145.177 100.502 148.5 96.764 148.5 92.25V82.5C148.5 78.0405 145.257 74.3386 141 73.6244V69C141 64.9189 140.418 60.9738 139.332 57.2431L140.365 66.896L131.859 48.8959L98.0076 34.2531L75.4224 42.1713L59.2986 57.3145L59.2652 55.3578Z" fill="#314756"/>
                <mask id="mask8_54_9" style="mask-type:luminance" maskUnits="userSpaceOnUse" x="0" y="0" width="195" height="147">
                    <path fill-rule="evenodd" clip-rule="evenodd" d="M59.2652 55.3578C57.797 59.6352 57 64.2245 57 69V73.6244C52.7434 74.3386 49.5 78.0405 49.5 82.5V92.25C49.5 96.764 52.8232 100.502 57.1564 101.15C58.4639 116.336 67.8519 129.212 81 135.458V143.666C77.4715 145.324 73.5314 146.25 69.375 146.25C62.7702 146.25 56.7118 143.911 51.9828 140.016C50.5514 140.171 49.0975 140.25 47.625 140.25C31.8042 140.25 18.1219 131.094 11.5883 117.791C5.95071 113.943 2.25 107.466 2.25 100.125C2.25 98.5391 2.42272 96.9934 2.75038 95.506C0.972295 90.7587 0 85.6179 0 80.25C0 70.6828 3.08859 61.8369 8.32307 54.6551C8.27468 54.0681 8.25 53.4745 8.25 52.875C8.25 44.4019 13.1801 37.0802 20.3282 33.6222C26.6526 20.0262 40.1682 10.4519 55.9876 9.78697C59.8364 6.05048 65.0871 3.75 70.875 3.75C72.6202 3.75 74.3166 3.95916 75.9404 4.35377C83.0819 1.5435 90.8607 0 99 0C106.76 0 114.191 1.40283 121.056 3.9687C122.058 3.82458 123.083 3.75 124.125 3.75C129.913 3.75 135.164 6.05048 139.012 9.78697C154.832 10.4519 168.347 20.0262 174.672 33.6222C181.82 37.0802 186.75 44.4019 186.75 52.875C186.75 53.4745 186.725 54.0681 186.677 54.6551C191.911 61.8369 195 70.6828 195 80.25C195 85.6179 194.028 90.7587 192.25 95.506C192.577 96.9934 192.75 98.5391 192.75 100.125C192.75 107.466 189.049 113.943 183.412 117.791C176.878 131.094 163.196 140.25 147.375 140.25C145.903 140.25 144.449 140.171 143.017 140.016C138.288 143.911 132.23 146.25 125.625 146.25C122.611 146.25 119.712 145.763 117 144.864V135.458C130.148 129.212 139.536 116.336 140.844 101.15C145.177 100.502 148.5 96.764 148.5 92.25V82.5C148.5 78.0405 145.257 74.3386 141 73.6244V69C141 64.9189 140.418 60.9738 139.332 57.2431L140.365 66.896L131.859 48.8959L98.0076 34.2531L75.4224 42.1713L59.2986 57.3145L59.2652 55.3578Z" fill="white"/>
                </mask>
                <g mask="url(#mask8_54_9)">
                    <!-- hair -->
                    <path d="M197.25 3.05176e-05H-0.75V210H197.25V3.05176e-05Z" fill="#000000"/>
                </g>
                <!-- headband -->
                <path fill-rule="evenodd" clip-rule="evenodd" d="M56.7235 74.2313C56.4117 72.3175 56.25 70.3582 56.25 68.3642C56.25 46.762 75.2219 29.25 98.625 29.25C122.028 29.25 141 46.762 141 68.3642C141 70.3582 140.838 72.3175 140.526 74.2313C137.46 55.4124 119.868 40.9843 98.625 40.9843C77.3823 40.9843 59.7903 55.4124 56.7235 74.2313Z" fill="#F2EAD3"/>
            </g>
        </g>
    </g>
    <defs>
        <clipPath id="clip0_54_9">
            <rect width="198" height="210" fill="white"/>
        </clipPath>
    </defs>
</svg>
