<svg xmlns="http://www.w3.org/2000/svg" width="198" height="74" fill="none" xmlns:v="https://vecta.io/nano"><style><![CDATA[.B{fill-rule:evenodd}.C{fill:#3f2305}.D{fill:#dfd7bf}.E{color-interpolation-filters:sRGB}.F{flood-opacity:0}]]></style><path d="M29.696 31.28l1.26 3.84c2.64 8.64 4.22 12.96 4.74 12.96s2.58-5.6 6.18-16.8l.84-2.76c.2-.72.36-1.34.48-1.86a11.18 11.18 0 0 0 .24-1.38c.08-.44.14-.92.18-1.44.16-1.32.5-2.28 1.02-2.88.56-.64 1.6-.96 3.12-.96.92 0 1.56.14 1.92.42.4.28.6.84.6 1.68 0 .8-.54 2.14-1.62 4.02-.32.6-1.86 4.66-4.62 12.18l-3.42 9.24c-.84 2.32-1.46 3.88-1.86 4.68-.68 1.56-1.3 2.58-1.86 3.06-.52.4-1.16.6-1.92.6-.8 0-1.46-.2-1.98-.6s-1.16-1.42-1.92-3.06c0-.08-1.44-4.14-4.32-12.18-2.8-8.04-4.7-12.76-5.7-14.16-.96-1.4-1.44-2.5-1.44-3.3s.24-1.34.72-1.62c.52-.32 1.3-.48 2.34-.48 1.68 0 2.86.4 3.54 1.2.72.76 1.24 1.86 1.56 3.3l.36 1.62c.16.56.34 1.12.54 1.68l.48 1.5c.08.08.14.24.18.48.08.24.2.58.36 1.02zM62.067 56h-1.32c-.72 0-1.34-.2-1.86-.6-.52-.44-.78-.92-.78-1.44 0-.36.16-1.06.48-2.1.28-.84.42-1.66.42-2.46l.12-1.98V37.28c-.08-1-.22-1.78-.42-2.34l-.24-.54-.54-1.44v-.54c0-1 1.04-1.5 3.12-1.5h.9c.64 0 1.12.06 1.44.18s.54.38.66.78c.16.4.24 1 .24 1.8.04.8.06 1.88.06 3.24v5.88l.18 3.66c0 2.04.42 3.78 1.26 5.22.32.64.48 1.28.48 1.92 0 .72-.4 1.3-1.2 1.74s-1.8.66-3 .66zm-.42-36.18h.9c.72 0 1.34.22 1.86.66.56.44.84 1.1.84 1.98v.6c0 .72-.24 1.36-.72 1.92-.44.56-1.04.84-1.8.84l-.48.06h-.84c-.16-.04-.42-.06-.78-.06-.32 0-.7-.2-1.14-.6-.4-.44-.6-.92-.6-1.44l-.12-.84v-.12l.12-.84c0-.4.22-.86.66-1.38s1.14-.78 2.1-.78zm23.767 36.24c-1.24 0-2.4-1.12-3.48-3.36-.52-1.16-1.08-2.48-1.68-3.96l-1.86-5.16c-1.32-3.88-2.4-6.5-3.24-7.86-.8-1.36-1.2-2.4-1.2-3.12s.16-1.22.48-1.5c.36-.32 1.18-.48 2.46-.48 2.04 0 3.36.74 3.96 2.22.16.28.36 1.06.6 2.34.08.4.22 1.04.42 1.92l.78 2.88 1.02 3.3 1.02 3.12c.32.92.62 1.68.9 2.28s.5.9.66.9.4-.34.72-1.02.68-1.54 1.08-2.58a66.04 66.04 0 0 0 1.2-3.42l1.14-3.6.9-3.06c.24-.92.38-1.54.42-1.86.12-1.12.22-1.74.3-1.86.36-1.04 1.3-1.56 2.82-1.56h.54c.88 0 1.48.14 1.8.42.32.24.48.72.48 1.44v.42c0 .4-.52 1.52-1.56 3.36-.12.2-.42.92-.9 2.16l-2.04 5.34c-.84 2.36-1.58 4.3-2.22 5.82-.6 1.52-1.1 2.64-1.5 3.36s-.76 1.3-1.08 1.74c-.28.4-.58.7-.9.9a2.64 2.64 0 0 1-.9.42c-.32.04-.7.06-1.14.06zm24.255-.06h-1.32c-.72 0-1.34-.2-1.86-.6-.52-.44-.78-.92-.78-1.44 0-.36.16-1.06.48-2.1.28-.84.42-1.66.42-2.46l.12-1.98V37.28c-.08-1-.22-1.78-.42-2.34l-.24-.54-.54-1.44v-.54c0-1 1.04-1.5 3.12-1.5h.9c.64 0 1.12.06 1.44.18s.54.38.66.78c.16.4.24 1 .24 1.8.04.8.06 1.88.06 3.24v5.88l.18 3.66c0 2.04.42 3.78 1.26 5.22.32.64.48 1.28.48 1.92 0 .72-.4 1.3-1.2 1.74s-1.8.66-3 .66zm-.42-36.18h.9c.72 0 1.34.22 1.86.66.56.44.84 1.1.84 1.98v.6c0 .72-.24 1.36-.72 1.92-.44.56-1.04.84-1.8.84l-.48.06h-.84c-.16-.04-.42-.06-.78-.06-.32 0-.7-.2-1.14-.6-.4-.44-.6-.92-.6-1.44l-.12-.84v-.12l.12-.84c0-.4.22-.86.66-1.38s1.14-.78 2.1-.78zm34.987 34.2c0 1.16-1.16 1.74-3.48 1.74-.2 0-.48-.04-.84-.12-.36-.12-.82-.3-1.38-.54-1.04-.4-1.72-.6-2.04-.6s-1.26.3-2.82.9-2.96.9-4.2.9h-.6c-.92 0-1.8-.16-2.64-.48s-1.58-.78-2.22-1.38c-.6-.6-1.1-1.32-1.5-2.16-.36-.84-.54-1.8-.54-2.88 0-4.4 2.76-7.1 8.28-8.1l5.52-1.14c.84-.44 1.26-1.22 1.26-2.34 0-1.16-.36-2.1-1.08-2.82-.72-.76-1.7-1.14-2.94-1.14-1.28 0-2.72.4-4.32 1.2-1.68.84-2.82 1.26-3.42 1.26-1.12 0-1.68-.76-1.68-2.28 0-.48.24-.96.72-1.44s1.12-.9 1.92-1.26c.8-.4 1.72-.72 2.76-.96s2.12-.36 3.24-.36h1.32c1.68 0 3.16.32 4.44.96 1.32.64 2.32 1.5 3 2.58 1 1.48 1.5 4.98 1.5 10.5 0 3.12.06 5.04.18 5.76.12.8.42 1.56.9 2.28.44.72.66 1.36.66 1.92zm-13.02-1.2h.78c1.64 0 2.92-.54 3.84-1.62.96-1.08 1.44-2.64 1.44-4.68V45.5c0-1.28-.54-1.92-1.62-1.92h-.78l-2.04.18c-1.6 0-2.92.44-3.96 1.32-1 .88-1.5 1.94-1.5 3.18v.9c0 .92.32 1.76.96 2.52.68.76 1.64 1.14 2.88 1.14zm24.967 2.46h-.06c-1.96 0-2.94-.68-2.94-2.04 0-.56.16-1.36.48-2.4.2-.48.34-.94.42-1.38.08-.48.14-1 .18-1.56a13.7 13.7 0 0 0 .12-1.92v-2.64-6.18c.04-.44.06-.8.06-1.08v-.78l-.24-2.7c0-.6.54-.9 1.62-.9s2.18.3 3.3.9c1.16.6 1.86.9 2.1.9.28 0 .8-.18 1.56-.54s1.64-.74 2.64-1.14 2.04-.6 3.12-.6h.72c1.28 0 2.42.36 3.42 1.08 1 .68 1.74 1.62 2.22 2.82.2.64.38 1.52.54 2.64.2 1.12.34 2.52.42 4.2l.12 2.82a45.74 45.74 0 0 1 .18 2.7c.04.96.26 1.96.66 3s.6 1.76.6 2.16c0 1.52-1.16 2.28-3.48 2.28-1 0-1.74-.2-2.22-.6-.44-.4-.66-1.08-.66-2.04l.06-.96c0-3.4-.14-6.22-.42-8.46-.24-2.28-.58-4.02-1.02-5.22-.76-1.88-2.1-2.82-4.02-2.82-.92 0-1.82.22-2.7.66-.84.44-1.5 1.18-1.98 2.22-.88 1.76-1.32 5.24-1.32 10.44l.24 4.68c0 .72-.36 1.32-1.08 1.8-.72.44-1.6.66-2.64.66z" class="C"/><g filter="url(#E)"><mask id="A" maskUnits="userSpaceOnUse" x="96" y="11" width="17" height="17" fill="#000"><path fill="#fff" d="M96 11h17v17H96z"/><path d="M108.827 26.789c.282.282.742.285 1.002-.016A8.9 8.9 0 0 0 112 20.935C112 16 108 12 103.065 12a8.9 8.9 0 0 0-5.838 2.171c-.302.261-.298.72-.016 1.002l11.616 11.616z" class="B"/></mask><path d="M108.827 26.789c.282.282.742.285 1.002-.016A8.9 8.9 0 0 0 112 20.935C112 16 108 12 103.065 12a8.9 8.9 0 0 0-5.838 2.171c-.302.261-.298.72-.016 1.002l11.616 11.616z" class="B D"/><path d="M109.829 26.773l-.274-.237.274.237zm-1.002.016l-.257.257.257-.257zm2.81-5.854a8.54 8.54 0 0 1-2.082 5.601l.549.475c1.407-1.629 2.259-3.753 2.259-6.075h-.726zm-8.572-8.572c4.734 0 8.572 3.838 8.572 8.572h.726a9.3 9.3 0 0 0-9.298-9.298v.726zm-5.6 2.082c1.502-1.298 3.46-2.082 5.6-2.082v-.726c-2.322 0-4.446.852-6.075 2.259l.475.55zm-.51.984l11.616 11.616.514-.513-11.617-11.616-.513.513zm.036-1.534c-.476.411-.453 1.117-.036 1.534l.513-.513c-.147-.147-.131-.361-.003-.471l-.475-.55zm12.565 12.64c-.111.128-.324.144-.471-.003l-.514.513c.418.417 1.123.44 1.534-.036l-.549-.475z" mask="url(#A)" class="C"/></g><g filter="url(#F)"><mask id="B" maskUnits="userSpaceOnUse" x="105.438" y="11" width="17" height="17" fill="#000"><path fill="#fff" d="M105.438 11h17v17h-17z"/><path d="M109.611 26.789c-.282.282-.741.285-1.002-.016a8.9 8.9 0 0 1-2.171-5.838A8.94 8.94 0 0 1 115.373 12a8.9 8.9 0 0 1 5.838 2.171c.302.261.299.72.017 1.002l-11.617 11.616z" class="B"/></mask><path d="M109.611 26.789c-.282.282-.741.285-1.002-.016a8.9 8.9 0 0 1-2.171-5.838A8.94 8.94 0 0 1 115.373 12a8.9 8.9 0 0 1 5.838 2.171c.302.261.299.72.017 1.002l-11.617 11.616z" class="B C"/><path d="M108.609 26.773l.275-.237-.275.237zm1.002.016l.257.257-.257-.257zm-2.81-5.854c0 2.141.785 4.098 2.083 5.601l-.55.475c-1.407-1.629-2.259-3.753-2.259-6.075h.726zm8.572-8.572c-4.734 0-8.572 3.838-8.572 8.572h-.726a9.3 9.3 0 0 1 9.298-9.298v.726zm5.601 2.082c-1.502-1.298-3.459-2.082-5.601-2.082v-.726c2.322 0 4.446.852 6.076 2.259l-.475.549zm.51.984l-11.616 11.616-.513-.513 11.616-11.616.513.513zm-.035-1.534c.476.411.452 1.116.035 1.534l-.513-.513c.147-.147.131-.361.003-.471l.475-.549zm-12.565 12.64c.11.128.324.144.471-.003l.513.513c-.417.417-1.122.441-1.534-.036l.55-.475z" mask="url(#B)" class="D"/></g><g filter="url(#G)"><mask id="C" maskUnits="userSpaceOnUse" x="49" y="11" width="17" height="17" fill="#000"><path fill="#fff" d="M49 11h17v17H49z"/><path d="M61.827 26.789c.282.282.742.285 1.002-.016A8.9 8.9 0 0 0 65 20.935C65 16 61 12 56.065 12a8.9 8.9 0 0 0-5.838 2.171c-.302.261-.298.72-.016 1.002l11.616 11.616z" class="B"/></mask><path d="M61.827 26.789c.282.282.742.285 1.002-.016A8.9 8.9 0 0 0 65 20.935C65 16 61 12 56.065 12a8.9 8.9 0 0 0-5.838 2.171c-.302.261-.298.72-.016 1.002l11.616 11.616z" class="B D"/><path d="M62.829 26.773l-.275-.237.275.237zm-1.002.016l-.257.257.257-.257zm2.81-5.854c0 2.141-.785 4.098-2.082 5.601l.55.475c1.407-1.629 2.259-3.753 2.259-6.075h-.726zm-8.572-8.572c4.734 0 8.572 3.838 8.572 8.572h.726a9.3 9.3 0 0 0-9.298-9.298v.726zm-5.6 2.082c1.502-1.298 3.459-2.082 5.6-2.082v-.726c-2.322 0-4.446.852-6.075 2.259l.475.55zm-.51.984L61.57 27.046l.513-.513-11.616-11.616-.513.513zm.036-1.534c-.476.411-.453 1.117-.036 1.534l.513-.513c-.147-.147-.131-.361-.003-.471l-.475-.55zm12.565 12.64c-.11.128-.324.144-.471-.003l-.513.513c.417.417 1.122.44 1.534-.036l-.55-.475z" mask="url(#C)" class="C"/></g><g filter="url(#H)"><mask id="D" maskUnits="userSpaceOnUse" x="58.438" y="11" width="17" height="17" fill="#000"><path fill="#fff" d="M58.438 11h17v17h-17z"/><path d="M62.611 26.789c-.282.282-.742.285-1.002-.016a8.9 8.9 0 0 1-2.171-5.838c0-4.935 4-8.935 8.935-8.935a8.9 8.9 0 0 1 5.838 2.171c.302.261.298.72.016 1.002L62.611 26.789z" class="B"/></mask><path d="M62.611 26.789c-.282.282-.742.285-1.002-.016a8.9 8.9 0 0 1-2.171-5.838c0-4.935 4-8.935 8.935-8.935a8.9 8.9 0 0 1 5.838 2.171c.302.261.298.72.016 1.002L62.611 26.789z" class="B C"/><path d="M61.609 26.773l.275-.237-.275.237zm1.002.016l.257.257-.257-.257zm-2.81-5.854c0 2.141.785 4.098 2.082 5.601l-.55.475c-1.407-1.629-2.259-3.753-2.259-6.075h.726zm8.572-8.572c-4.734 0-8.572 3.838-8.572 8.572h-.726a9.3 9.3 0 0 1 9.298-9.298v.726zm5.6 2.082c-1.502-1.298-3.459-2.082-5.6-2.082v-.726c2.322 0 4.446.852 6.075 2.259l-.475.549zm.51.984L62.868 27.046l-.513-.513 11.616-11.616.513.513zm-.036-1.534c.476.411.453 1.116.036 1.534l-.513-.513c.147-.147.131-.361.003-.471l.475-.549zm-12.565 12.64c.11.128.324.144.471-.003l.513.513c-.417.417-1.122.441-1.534-.036l.55-.475z" mask="url(#D)" class="D"/></g><defs><filter id="E" x="93.733" y="11.637" width="21.534" height="21.534" filterUnits="userSpaceOnUse" class="E"><feFlood result="A" class="F"/><feColorMatrix in="SourceAlpha" values="0 0 0 0 0 0 0 0 0 0 0 0 0 0 0 0 0 0 127 0" result="B"/><feOffset dy="2.90413"/><feGaussianBlur stdDeviation="1.452"/><feComposite in2="B" operator="out"/><feColorMatrix values="0 0 0 0 0.94902 0 0 0 0 0.917647 0 0 0 0 0.827451 0 0 0 1 0"/><feBlend in2="A"/><feBlend in="SourceGraphic"/></filter><filter id="F" x="103.171" y="11.637" width="21.534" height="21.534" filterUnits="userSpaceOnUse" class="E"><feFlood result="A" class="F"/><feColorMatrix in="SourceAlpha" values="0 0 0 0 0 0 0 0 0 0 0 0 0 0 0 0 0 0 127 0" result="B"/><feOffset dy="2.90413"/><feGaussianBlur stdDeviation="1.452"/><feComposite in2="B" operator="out"/><feColorMatrix values="0 0 0 0 0.94902 0 0 0 0 0.917647 0 0 0 0 0.827451 0 0 0 1 0"/><feBlend in2="A"/><feBlend in="SourceGraphic"/></filter><filter id="G" x="46.733" y="11.637" width="21.534" height="21.534" filterUnits="userSpaceOnUse" class="E"><feFlood result="A" class="F"/><feColorMatrix in="SourceAlpha" values="0 0 0 0 0 0 0 0 0 0 0 0 0 0 0 0 0 0 127 0" result="B"/><feOffset dy="2.90413"/><feGaussianBlur stdDeviation="1.452"/><feComposite in2="B" operator="out"/><feColorMatrix values="0 0 0 0 0.94902 0 0 0 0 0.917647 0 0 0 0 0.827451 0 0 0 1 0"/><feBlend in2="A"/><feBlend in="SourceGraphic"/></filter><filter id="H" x="56.171" y="11.637" width="21.534" height="21.534" filterUnits="userSpaceOnUse" class="E"><feFlood result="A" class="F"/><feColorMatrix in="SourceAlpha" values="0 0 0 0 0 0 0 0 0 0 0 0 0 0 0 0 0 0 127 0" result="B"/><feOffset dy="2.90413"/><feGaussianBlur stdDeviation="1.452"/><feComposite in2="B" operator="out"/><feColorMatrix values="0 0 0 0 0.94902 0 0 0 0 0.917647 0 0 0 0 0.827451 0 0 0 1 0"/><feBlend in2="A"/><feBlend in="SourceGraphic"/></filter></defs></svg>